<?xml version="1.0" encoding="UTF-8" standalone="no"?>
<svg width="268px" height="236px" viewBox="0 0 268 236" version="1.1" xmlns="http://www.w3.org/2000/svg" xmlns:xlink="http://www.w3.org/1999/xlink">
    <!-- Generator: Sketch 46.2 (44496) - http://www.bohemiancoding.com/sketch -->
    <title>Bubble</title>
    <desc>Created with Sketch.</desc>
    <defs>
        <path d="M125.334227,25.6127027 C134.614902,13.2929019 142.119205,6.36041484 147.847137,4.81524145 C164.826689,0.234817674 183.977946,10.575875 191.545526,15.288591 C202.94241,22.3860088 207.651516,43.9605537 205.672845,80.0122257 C226.75746,87.1128223 239.136864,93.0189724 242.811056,97.7306762 C257.216848,116.204348 246.065414,135.388919 242.811056,143.973962 C239.771662,151.991929 227.313011,180.075438 205.672845,182.546427 C198.742826,183.337734 186.241414,176.271718 168.168608,161.348381 C167.842174,180.575867 165.476886,193.16368 161.072745,199.11182 C150.688725,213.136257 127.373078,217.666002 118.938995,217.666002 C110.624791,217.666002 85.0771632,215.393055 74.0891187,200.913669 C69.2559785,194.544847 66.7231256,180.184509 66.4905599,157.832653 C49.8375208,169.824691 38.4174278,174.879401 32.230281,172.996781 C14.8791159,167.717184 4.99671464,138.703888 2.47226994,132.044366 C-0.350421396,124.598066 -3.7335277,94.0417387 10.9615426,75.5508019 C14.6127811,70.9564162 24.4127279,69.1603266 40.361383,70.162533 C32.723019,56.1041082 29.4057514,46.4026059 30.4095802,41.0580263 C32.8814496,27.897314 49.6003133,19.2710222 55.9952175,15.288591 C62.7755029,11.0661632 76.8107482,-3.53628031 94.7247748,0.793676312 C100.907382,2.28805943 111.110532,10.5610682 125.334227,25.6127027 Z" id="path-1"></path>
        <filter x="-4.6%" y="-5.3%" width="110.8%" height="112.4%" filterUnits="objectBoundingBox" id="filter-2">
            <feMorphology radius="2.5" operator="dilate" in="SourceAlpha" result="shadowSpreadOuter1"></feMorphology>
            <feOffset dx="2" dy="2" in="shadowSpreadOuter1" result="shadowOffsetOuter1"></feOffset>
            <feGaussianBlur stdDeviation="2" in="shadowOffsetOuter1" result="shadowBlurOuter1"></feGaussianBlur>
            <feComposite in="shadowBlurOuter1" in2="SourceAlpha" operator="out" result="shadowBlurOuter1"></feComposite>
            <feColorMatrix values="0 0 0 0 0   0 0 0 0 0   0 0 0 0 0  0 0 0 0.5 0" type="matrix" in="shadowBlurOuter1"></feColorMatrix>
        </filter>
    </defs>
    <g id="Page-1" stroke="none" stroke-width="1" fill="none" fill-rule="evenodd">
        <g id="Fade-in-bubble-Copy" transform="translate(7.000000, 7.000000)">
            <g id="Bubble">
                <use fill="black" fill-opacity="1" filter="url(#filter-2)" xlink:href="#path-1"></use>
                <use stroke="#D8D8D8" stroke-width="1" fill="#F3EDED" fill-rule="evenodd" xlink:href="#path-1"></use>
            </g>
        </g>
    </g>
</svg>