<?xml version="1.0" encoding="UTF-8" standalone="no"?>
<svg width="249px" height="144px" viewBox="0 0 249 144" version="1.1" xmlns="http://www.w3.org/2000/svg" xmlns:xlink="http://www.w3.org/1999/xlink">
    <!-- Generator: Sketch 46.2 (44496) - http://www.bohemiancoding.com/sketch -->
    <title>Billboard - DMX</title>
    <desc>Created with Sketch.</desc>
    <defs></defs>
    <g id="Page-1" stroke="none" stroke-width="1" fill="none" fill-rule="evenodd">
        <g id="Billboard---DMX" transform="translate(1.000000, 1.000000)">
            <path d="M4.72059441,7.45699197 L165.270183,0.965351681 L232.86949,0 C232.432759,9.29181303 232.432759,15.7033503 232.86949,19.2346117 C233.324992,22.9176548 232.86949,26.7570821 232.86949,29.4057808 C232.86949,43.462223 235.720281,55.2706718 235.720281,63.887682 C235.720281,78.5008222 239.480187,102.033841 247,134.486739 L121.55366,141.863079 C93.4715056,142.332163 72.4079654,142.332163 58.3630393,141.863079 C44.3181133,141.393996 24.8637669,140.040748 0,137.803335 L0,116.159871 L4.72059441,7.45699197 Z" id="Empty-Billlboard" stroke="#979797" fill="#D8D8D8"></path>
            <text id="Oh…-no-—-that’s-not" font-family="Aldrich" font-size="10" font-weight="normal" fill="#646464">
                <tspan x="23" y="43">Oh… no — that’s not how rough-ryders </tspan>
                <tspan x="23" y="54">roll. Why are you driving so slow only to </tspan>
                <tspan x="23" y="65">speed through a red light? That </tspan>
                <tspan x="23" y="76">doesn’t make any sense. And you da*n </tspan>
                <tspan x="23" y="87">near killed me! This dog will bark and </tspan>
                <tspan x="23" y="98">bite the hubcaps of your stupid whip. </tspan>
            </text>
            <text id="$5-a-pop" font-family="Aldrich" font-size="10" font-weight="normal" fill="#000000">
                <tspan x="23" y="128">$5-a-pop</tspan>
            </text>
            <text id="DMX" font-family="Aldrich" font-size="14" font-weight="normal" fill="#000000">
                <tspan x="23" y="26">DMX</tspan>
            </text>
        </g>
    </g>
</svg>