<?xml version="1.0" encoding="UTF-8" standalone="no"?>
<svg width="249px" height="144px" viewBox="0 0 249 144" version="1.1" xmlns="http://www.w3.org/2000/svg" xmlns:xlink="http://www.w3.org/1999/xlink">
    <!-- Generator: Sketch 46.2 (44496) - http://www.bohemiancoding.com/sketch -->
    <title>Billboard - Jay Z</title>
    <desc>Created with Sketch.</desc>
    <defs></defs>
    <g id="Page-1" stroke="none" stroke-width="1" fill="none" fill-rule="evenodd">
        <g id="Billboard---Jay-Z" transform="translate(1.000000, 1.000000)">
            <path d="M4.72059441,7.45699197 L165.270183,0.965351681 L232.86949,0 C232.432759,9.29181303 232.432759,15.7033503 232.86949,19.2346117 C233.324992,22.9176548 232.86949,26.7570821 232.86949,29.4057808 C232.86949,43.462223 235.720281,55.2706718 235.720281,63.887682 C235.720281,78.5008222 239.480187,102.033841 247,134.486739 L121.55366,141.863079 C93.4715056,142.332163 72.4079654,142.332163 58.3630393,141.863079 C44.3181133,141.393996 24.8637669,140.040748 0,137.803335 L0,116.159871 L4.72059441,7.45699197 Z" id="Empty-Billlboard-Copy-2" stroke="#979797" fill="#D8D8D8"></path>
            <text id="H.O.V.A.-All-bow-to" font-family="Aldrich" font-size="10" font-weight="normal" fill="#646464">
                <tspan x="23" y="50">H.O.V.A. All bow to the greatest-</tspan>
                <tspan x="23" y="61">rapper-alive-so-says-himself! After all, </tspan>
                <tspan x="23" y="72">you don’t need raps when you’ve got </tspan>
                <tspan x="23" y="83">money like this. This dude’s gonna </tspan>
                <tspan x="23" y="94">throw-down and destroy these </tspan>
                <tspan x="23" y="105">pretenders behind the wheel.</tspan>
            </text>
            <text id="$25,000,000/year" font-family="Aldrich" font-size="10" font-weight="normal" fill="#000000">
                <tspan x="23" y="124">$25,000,000/year</tspan>
            </text>
            <text id="Jay-Z" font-family="Aldrich" font-size="14" font-weight="normal" fill="#000000">
                <tspan x="23" y="30">Jay-Z</tspan>
            </text>
        </g>
    </g>
</svg>